<svg xmlns="http://www.w3.org/2000/svg" width="19.554" height="17.821" viewBox="0 0 19.554 17.821"><defs><style>.a{fill:#fff;}</style></defs><g transform="translate(0.001 -0.148)"><path class="a" d="M165.487.148h-7.2a1.979,1.979,0,0,0-1.991,1.967V4.031a.376.376,0,1,0,.751,0V2.118A1.226,1.226,0,0,1,158.279.9h7.208a1.209,1.209,0,0,1,1.219,1.2V16a1.209,1.209,0,0,1-1.2,1.219h-7.223A1.227,1.227,0,0,1,157.044,16V14.125a.376.376,0,1,0-.751,0V16a1.979,1.979,0,0,0,1.988,1.97h7.207a1.962,1.962,0,0,0,1.971-1.952V2.118A1.961,1.961,0,0,0,165.5.148h-.018Zm0,0" transform="translate(-147.904)"/><path class="a" d="M1.292,88.286H14.384a.376.376,0,1,0,0-.751H1.209l2.985-3.44a.376.376,0,0,0-.568-.493L.144,87.614a.375.375,0,0,0,.021.608L3.644,91.7a.376.376,0,0,0,.531-.531Zm0,0" transform="translate(0 -78.852)"/></g></svg>